<svg width="677" height="327" viewBox="0 0 677 327" fill="none" xmlns="http://www.w3.org/2000/svg">
<path fill-rule="evenodd" clip-rule="evenodd" d="M330.933 53.6421C332.965 53.6421 333.982 52.4243 333.982 49.9885C333.982 48.0748 333.897 46.248 333.728 44.5082L333.219 39.2888C333.219 37.8969 333.135 35.4612 332.965 31.9816C332.965 28.328 332.881 24.5005 332.711 20.4989C332.542 16.3234 332.373 12.6699 332.203 9.53822C332.034 6.2326 331.864 4.31882 331.695 3.79688C331.356 2.05708 330.086 1.18718 327.884 1.18718C324.666 1.18718 321.363 1.27417 317.976 1.44816C314.758 1.44816 311.624 1.53516 308.576 1.70913L287.235 2.23107H266.402H244.807C232.443 2.23107 219.909 2.31805 207.206 2.49203C194.673 2.49203 182.224 1.8831 169.86 0.665251C166.98 0.317285 165.541 1.36116 165.541 3.79688C165.371 5.18872 165.287 6.75454 165.287 8.49433C165.287 10.2341 165.202 11.9739 165.032 13.7137C164.863 18.5852 164.609 23.8916 164.27 29.6329C164.101 35.2002 163.847 39.9847 163.508 43.9862C163.339 45.5521 163.169 46.9439 163 48.1617V50.7714C163 52.6852 163.932 53.6421 165.795 53.6421C167.15 53.6421 168.166 53.2072 168.843 52.3373C169.013 52.1633 169.267 51.2064 169.606 49.4666C170.114 47.5528 170.537 45.639 170.876 43.7253C171.384 41.6375 171.638 40.4196 171.638 40.0717C172.654 35.0263 173.755 30.1548 174.941 25.4574C176.126 20.5859 178.159 16.6714 181.038 13.7137C184.087 10.5821 188.66 9.01629 194.757 9.01629H217.369H222.196C223.889 9.01629 225.498 9.19026 227.023 9.53822C228.886 9.71219 230.58 10.6691 232.104 12.4089C233.798 14.1487 234.645 16.0625 234.645 18.1502C234.645 31.3727 234.729 44.5952 234.899 57.8176C234.939 60.8981 234.974 63.9834 235.004 67.0736H261.667C261.606 51.1691 261.575 35.2963 261.575 19.4551C261.575 15.2796 262.93 12.4959 265.64 11.104C268.519 9.7122 271.737 9.01629 275.294 9.01629H284.694H294.602C298.837 9.01629 302.986 9.36424 307.051 10.0602C311.116 10.7561 313.996 12.1479 315.689 14.2357C319.077 18.2372 321.533 23.4566 323.057 29.8939C324.751 36.1571 326.021 41.8985 326.868 47.1179C326.868 47.6398 326.953 48.5967 327.122 49.9885C327.461 51.2064 327.715 51.9893 327.884 52.3373C328.223 53.0332 328.646 53.4681 329.154 53.6421H330.933ZM262.291 153.713H234.857C234.816 161.676 234.745 169.64 234.645 177.603C234.645 180.038 233.459 181.865 231.088 183.083C228.886 184.127 226.345 184.823 223.466 185.171C220.587 185.519 218.215 185.693 216.352 185.693H215.336C214.997 185.519 214.659 185.432 214.32 185.432C212.457 185.432 211.271 185.693 210.763 186.215C210.255 186.737 210.001 188.042 210.001 190.129C210.001 192.043 210.763 193 212.287 193C214.15 193 216.098 192.913 218.131 192.739C220.163 192.565 222.111 192.478 223.974 192.478C232.443 191.956 240.742 191.695 248.872 191.695C254.969 191.695 260.982 191.869 266.91 192.217C273.007 192.391 279.105 192.478 285.202 192.478C286.388 192.478 286.981 191.869 286.981 190.651V187.52C286.981 185.954 286.134 185.171 284.44 185.171C283.254 185.171 282.069 185.258 280.883 185.432H277.326C275.802 185.432 273.854 185.258 271.483 184.91C269.112 184.562 266.995 183.866 265.132 182.822C263.269 181.604 262.337 179.865 262.337 177.603C262.337 169.632 262.322 161.669 262.291 153.713Z" fill="#F2F2F2"/>
<path fill-rule="evenodd" clip-rule="evenodd" d="M506.343 53.6421C508.375 53.6421 509.391 52.4243 509.391 49.9885C509.391 48.0748 509.307 46.248 509.137 44.5082L508.629 39.2888C508.629 37.8969 508.544 35.4612 508.375 31.9816C508.375 28.328 508.29 24.5005 508.121 20.4989C507.952 16.3234 507.782 12.6699 507.613 9.53822C507.444 6.2326 507.274 4.31882 507.105 3.79688C506.766 2.05708 505.496 1.18718 503.294 1.18718C500.076 1.18718 496.773 1.27417 493.386 1.44816C490.168 1.44816 487.034 1.53516 483.985 1.70913L462.644 2.23107H441.812H420.217C407.852 2.23107 395.319 2.31805 382.616 2.49203C370.082 2.49203 357.634 1.8831 345.269 0.665251C342.39 0.317285 340.95 1.36116 340.95 3.79688C340.781 5.18872 340.696 6.75454 340.696 8.49433C340.696 10.2341 340.612 11.9739 340.442 13.7137C340.273 18.5852 340.019 23.8916 339.68 29.6329C339.511 35.2002 339.257 39.9847 338.918 43.9862C338.748 45.5521 338.579 46.9439 338.41 48.1617V50.7714C338.41 52.6852 339.341 53.6421 341.204 53.6421C342.559 53.6421 343.576 53.2072 344.253 52.3373C344.422 52.1633 344.677 51.2064 345.015 49.4666C345.523 47.5528 345.947 45.639 346.286 43.7253C346.794 41.6375 347.048 40.4196 347.048 40.0717C348.064 35.0263 349.165 30.1548 350.35 25.4574C351.536 20.5859 353.569 16.6714 356.448 13.7137C359.497 10.5821 364.07 9.01629 370.167 9.01629H392.778H397.605C399.299 9.01629 400.908 9.19026 402.433 9.53822C404.296 9.71219 405.989 10.6691 407.514 12.4089C409.207 14.1487 410.054 16.0625 410.054 18.1502C410.054 31.3727 410.139 44.5952 410.308 57.8176C410.348 60.8981 410.384 63.9834 410.414 67.0736H437.077C437.015 51.1691 436.985 35.2963 436.985 19.4551C436.985 15.2796 438.34 12.4959 441.049 11.104C443.929 9.7122 447.147 9.01629 450.704 9.01629H460.104H470.012C474.246 9.01629 478.396 9.36424 482.461 10.0602C486.526 10.7561 489.405 12.1479 491.099 14.2357C494.487 18.2372 496.942 23.4566 498.467 29.8939C500.161 36.1571 501.431 41.8985 502.278 47.1179C502.278 47.6398 502.362 48.5967 502.532 49.9885C502.87 51.2064 503.125 51.9893 503.294 52.3373C503.633 53.0332 504.056 53.4681 504.564 53.6421H506.343ZM437.701 153.713H410.267C410.226 161.676 410.155 169.64 410.054 177.603C410.054 180.038 408.869 181.865 406.497 183.083C404.296 184.127 401.755 184.823 398.876 185.171C395.996 185.519 393.625 185.693 391.762 185.693H390.746C390.407 185.519 390.068 185.432 389.73 185.432C387.866 185.432 386.681 185.693 386.173 186.215C385.665 186.737 385.411 188.042 385.411 190.129C385.411 192.043 386.173 193 387.697 193C389.56 193 391.508 192.913 393.54 192.739C395.573 192.565 397.521 192.478 399.384 192.478C407.852 191.956 416.152 191.695 424.282 191.695C430.379 191.695 436.392 191.869 442.32 192.217C448.417 192.391 454.515 192.478 460.612 192.478C461.798 192.478 462.39 191.869 462.39 190.651V187.52C462.39 185.954 461.544 185.171 459.85 185.171C458.664 185.171 457.479 185.258 456.293 185.432H452.736C451.212 185.432 449.264 185.258 446.893 184.91C444.522 184.562 442.404 183.866 440.541 182.822C438.678 181.604 437.747 179.865 437.747 177.603C437.747 169.632 437.731 161.669 437.701 153.713Z" fill="#F2F2F2"/>
<path d="M51.9918 96.12C51.9918 96.7173 51.7358 97.016 51.2238 97.016C51.0531 97.016 50.9038 97.016 50.7758 97.016C50.6478 96.9733 50.5411 96.8667 50.4558 96.696C50.4131 96.6107 50.3491 96.4187 50.2638 96.12C50.2211 95.7787 50.1998 95.544 50.1998 95.416C49.9864 94.136 49.6664 92.728 49.2398 91.192C48.8558 89.6133 48.2371 88.3333 47.3838 87.352C46.9571 86.84 46.2318 86.4987 45.2078 86.328C44.1838 86.1573 43.1384 86.072 42.0718 86.072C41.0051 86.072 40.1731 86.072 39.5758 86.072C38.9358 86.072 38.1464 86.072 37.2078 86.072C36.3118 86.072 35.5011 86.2427 34.7758 86.584C34.0931 86.9253 33.7518 87.608 33.7518 88.632C33.7518 95.0747 33.7731 101.539 33.8158 108.024C33.9011 114.467 33.9438 120.931 33.9438 127.416C33.9438 127.971 34.1784 128.397 34.6478 128.696C35.1171 128.952 35.6504 129.123 36.2478 129.208C36.8451 129.293 37.3358 129.336 37.7198 129.336C38.0611 129.336 38.3598 129.336 38.6158 129.336C38.9144 129.293 39.2131 129.272 39.5118 129.272C39.9384 129.272 40.1518 129.464 40.1518 129.848C40.1518 130.019 40.1518 130.275 40.1518 130.616C40.1518 130.915 40.0024 131.064 39.7038 131.064C38.1678 131.064 36.6318 131.043 35.0958 131C33.6024 130.915 32.0878 130.872 30.5518 130.872C28.5038 130.872 26.4131 130.936 24.2798 131.064C23.8104 131.064 23.3198 131.085 22.8078 131.128C22.2958 131.171 21.8051 131.192 21.3358 131.192C20.9518 131.192 20.7598 130.957 20.7598 130.488C20.7598 129.976 20.8238 129.656 20.9518 129.528C21.0798 129.4 21.3784 129.336 21.8478 129.336C21.9331 129.336 22.0184 129.357 22.1038 129.4C22.2318 129.4 22.3171 129.4 22.3598 129.4C22.8291 129.4 23.4264 129.357 24.1518 129.272C24.8771 129.187 25.5171 129.016 26.0718 128.76C26.6691 128.461 26.9678 128.013 26.9678 127.416C27.0104 124.131 27.0318 120.845 27.0318 117.56C27.0744 114.275 27.0958 110.989 27.0958 107.704C27.0958 104.461 27.0744 101.24 27.0318 98.04C26.9891 94.7973 26.9678 91.5547 26.9678 88.312C26.9678 87.8 26.7544 87.3307 26.3278 86.904C25.9438 86.4773 25.5171 86.2427 25.0478 86.2C24.6638 86.1147 24.2584 86.072 23.8318 86.072C23.4478 86.072 23.0424 86.072 22.6158 86.072H16.9198C15.3838 86.072 14.2318 86.456 13.4638 87.224C12.7384 87.9493 12.2264 88.9093 11.9278 90.104C11.6291 91.256 11.3518 92.4507 11.0958 93.688C11.0958 93.7733 11.0318 94.072 10.9038 94.584C10.8184 95.0533 10.7118 95.5227 10.5838 95.992C10.4984 96.4187 10.4344 96.6533 10.3918 96.696C10.2211 96.9093 9.96508 97.016 9.62375 97.016C9.15442 97.016 8.91975 96.7813 8.91975 96.312C8.91975 96.1413 8.91975 95.928 8.91975 95.672C8.96242 95.3733 9.00508 95.032 9.04775 94.648C9.13308 93.6667 9.19708 92.4933 9.23975 91.128C9.32508 89.72 9.38908 88.4187 9.43175 87.224C9.47442 86.7973 9.49575 86.3707 9.49575 85.944C9.49575 85.5173 9.51708 85.1333 9.55975 84.792C9.55975 84.1947 9.92242 83.9387 10.6478 84.024C13.7624 84.3227 16.8984 84.472 20.0558 84.472C23.2558 84.4293 26.4131 84.408 29.5278 84.408H34.9678C36.7171 84.408 38.4664 84.408 40.2158 84.408C42.0078 84.3653 43.7998 84.3227 45.5918 84.28C46.3598 84.2373 47.1491 84.216 47.9598 84.216C48.8131 84.1733 49.6451 84.152 50.4558 84.152C51.0104 84.152 51.3304 84.3653 51.4158 84.792C51.4584 84.92 51.5011 85.3893 51.5438 86.2C51.5864 86.968 51.6291 87.864 51.6718 88.888C51.7144 89.8693 51.7358 90.808 51.7358 91.704C51.7784 92.5573 51.7998 93.1547 51.7998 93.496C51.8424 93.9227 51.8851 94.3493 51.9278 94.776C51.9704 95.2027 51.9918 95.6507 51.9918 96.12ZM79.0273 121.848C79.0273 123.768 78.6006 125.347 77.7473 126.584C76.8939 127.779 75.7846 128.696 74.4193 129.336C73.0539 129.976 71.5606 130.424 69.9393 130.68C68.3179 130.936 66.7393 131.064 65.2033 131.064C63.7953 131.064 62.3873 130.915 60.9792 130.616C59.6139 130.317 58.2273 130.104 56.8193 129.976C56.5206 128.824 56.2219 127.672 55.9233 126.52C55.6673 125.368 55.3686 124.237 55.0273 123.128C54.9846 123 54.8779 122.701 54.7073 122.232C54.5793 121.763 54.5153 121.507 54.5153 121.464C54.5153 121.123 54.6219 120.888 54.8353 120.76C55.0486 120.589 55.3046 120.504 55.6033 120.504C55.9019 120.504 56.1153 120.611 56.2433 120.824C56.4993 121.123 56.7126 121.528 56.8833 122.04C57.0966 122.552 57.2886 123 57.4593 123.384C57.8006 124.067 58.0993 124.6 58.3553 124.984C58.6113 125.325 59.0166 125.773 59.5713 126.328C61.2353 128.077 63.3046 128.952 65.7793 128.952C67.1446 128.952 68.3819 128.803 69.4913 128.504C70.6433 128.205 71.5606 127.651 72.2433 126.84C72.9259 125.987 73.2673 124.771 73.2673 123.192C73.2673 121.827 72.8406 120.696 71.9873 119.8C71.1339 118.861 70.0246 118.029 68.6593 117.304C67.3366 116.579 65.9286 115.875 64.4353 115.192C62.9419 114.509 61.5126 113.763 60.1473 112.952C58.8246 112.099 57.7366 111.075 56.8833 109.88C56.0299 108.685 55.6033 107.235 55.6033 105.528C55.6033 103.437 56.1366 101.731 57.2033 100.408C58.3126 99.0853 59.7206 98.104 61.4273 97.464C63.1339 96.7813 64.9046 96.44 66.7393 96.44C67.9339 96.44 69.0006 96.5893 69.9393 96.888C70.9206 97.1867 71.9446 97.528 73.0113 97.912C73.3526 98.04 73.6939 98.1253 74.0353 98.168C74.3766 98.2107 74.7179 98.232 75.0593 98.232C75.2726 98.232 75.4646 98.232 75.6353 98.232C75.8059 98.232 75.9766 98.2107 76.1473 98.168C76.2753 98.936 76.3819 99.7253 76.4673 100.536C76.5953 101.304 76.7019 102.093 76.7873 102.904C76.8299 103.203 76.8726 103.565 76.9153 103.992C77.0006 104.376 77.0433 104.739 77.0433 105.08C77.0433 105.379 76.9793 105.699 76.8513 106.04C76.7233 106.339 76.4673 106.488 76.0833 106.488C75.7846 106.488 75.5286 106.467 75.3153 106.424C75.1446 106.339 74.9953 106.147 74.8673 105.848C74.6539 105.421 74.4619 104.973 74.2913 104.504C74.1633 103.992 74.0139 103.523 73.8433 103.096C73.2886 101.603 72.3286 100.408 70.9633 99.512C69.5979 98.5733 68.1259 98.104 66.5473 98.104C64.5419 98.104 63.0273 98.7013 62.0033 99.896C60.9793 101.048 60.4673 102.605 60.4673 104.568C60.4673 105.251 60.6379 105.912 60.9792 106.552C61.3633 107.192 61.7899 107.747 62.2593 108.216C63.1553 109.069 64.2006 109.731 65.3953 110.2C66.6326 110.669 67.8059 111.139 68.9153 111.608C70.3659 112.248 71.8593 113.016 73.3953 113.912C74.9739 114.808 76.2966 115.896 77.3633 117.176C78.4726 118.456 79.0273 120.013 79.0273 121.848ZM121.158 130.296C121.158 130.509 121.051 130.68 120.838 130.808C120.624 130.893 120.411 130.936 120.198 130.936C119.131 130.936 118.043 130.915 116.934 130.872C115.867 130.787 114.779 130.744 113.67 130.744C112.432 130.744 111.174 130.787 109.894 130.872C108.656 130.957 107.419 131 106.182 131C105.968 131 105.819 130.872 105.734 130.616C105.691 130.317 105.67 130.083 105.67 129.912C105.67 129.613 105.819 129.464 106.118 129.464C106.587 129.464 107.035 129.485 107.462 129.528C107.931 129.528 108.379 129.528 108.806 129.528C109.36 129.528 109.787 129.357 110.086 129.016C110.427 128.632 110.619 128.184 110.662 127.672C110.747 126.605 110.768 125.539 110.726 124.472C110.726 123.405 110.726 122.36 110.726 121.336C110.726 120.056 110.726 118.797 110.726 117.56C110.726 116.28 110.726 115 110.726 113.72C110.726 112.44 110.726 111.16 110.726 109.88C110.726 108.6 110.683 107.32 110.598 106.04C110.555 105.485 110.491 104.952 110.406 104.44C110.363 103.885 110.256 103.352 110.086 102.84C109.659 101.688 108.955 100.813 107.974 100.216C107.035 99.576 105.947 99.256 104.71 99.256C103.259 99.256 101.83 99.64 100.422 100.408C99.0138 101.133 97.8404 102.051 96.9018 103.16C95.8778 104.355 95.1311 105.4 94.6618 106.296C94.1924 107.192 93.8938 108.131 93.7658 109.112C93.6804 110.093 93.6378 111.373 93.6378 112.952V124.216C93.6378 124.685 93.6164 125.347 93.5738 126.2C93.5738 127.053 93.6804 127.821 93.8938 128.504C94.1498 129.187 94.6404 129.528 95.3658 129.528C95.7924 129.528 96.1978 129.507 96.5818 129.464C96.9658 129.421 97.3711 129.4 97.7978 129.4C98.1818 129.4 98.3738 129.613 98.3738 130.04C98.3738 130.253 98.3311 130.467 98.2458 130.68C98.2031 130.851 98.0538 130.936 97.7978 130.936C96.3471 130.936 94.8538 130.915 93.3178 130.872C91.8244 130.787 90.3311 130.744 88.8378 130.744C87.4724 130.744 86.0858 130.808 84.6778 130.936C84.5071 130.936 84.3578 130.957 84.2298 131C84.1018 131 83.9524 131 83.7818 131C83.5684 131 83.3978 130.893 83.2698 130.68C83.1844 130.424 83.1418 130.211 83.1418 130.04C83.1418 129.571 83.3764 129.336 83.8458 129.336C84.1018 129.336 84.3578 129.357 84.6138 129.4C84.8698 129.4 85.1471 129.4 85.4458 129.4C86.0431 129.4 86.6618 129.315 87.3018 129.144C87.9844 128.931 88.3471 128.44 88.3898 127.672C88.4751 126.264 88.4964 124.856 88.4538 123.448C88.4538 122.04 88.4538 120.653 88.4538 119.288C88.4538 116.643 88.4538 114.019 88.4538 111.416C88.4964 108.813 88.5178 106.211 88.5178 103.608C88.5178 100.877 88.4964 98.168 88.4538 95.48C88.4111 92.7493 88.3684 90.0187 88.3258 87.288C88.3258 86.8187 88.2404 86.3067 88.0698 85.752C87.8991 85.1547 87.5151 84.856 86.9178 84.856C86.3204 84.856 85.7018 84.8987 85.0618 84.984C84.4218 85.0693 83.7818 85.112 83.1418 85.112C82.7578 85.112 82.5658 84.9413 82.5658 84.6C82.5658 84.216 82.7578 83.96 83.1418 83.832C83.9951 83.6187 84.8271 83.448 85.6378 83.32C86.4911 83.192 87.3231 83.0427 88.1338 82.872C88.8591 82.7013 89.7124 82.4667 90.6938 82.168C91.7178 81.8267 92.5711 81.656 93.2538 81.656C93.5098 81.656 93.6591 81.7413 93.7018 81.912C93.7444 82.04 93.7658 82.2107 93.7658 82.424C93.7658 85.9227 93.7658 89.4213 93.7658 92.92C93.7658 96.4187 93.7231 99.9173 93.6378 103.416C94.5764 102.435 95.7071 101.453 97.0298 100.472C98.3951 99.4907 99.8458 98.68 101.382 98.04C102.918 97.3573 104.368 97.016 105.734 97.016C108.507 97.016 110.683 97.4213 112.262 98.232C113.84 99.0427 114.95 100.301 115.59 102.008C116.23 103.672 116.55 105.848 116.55 108.536C116.55 111.736 116.528 114.936 116.486 118.136C116.486 121.293 116.486 124.472 116.486 127.672C116.486 128.355 116.656 128.845 116.998 129.144C117.382 129.4 117.915 129.528 118.598 129.528C118.896 129.528 119.174 129.507 119.43 129.464C119.728 129.421 120.027 129.4 120.326 129.4C120.539 129.4 120.731 129.507 120.902 129.72C121.072 129.891 121.158 130.083 121.158 130.296ZM151.925 114.104C151.925 112.269 151.776 110.435 151.477 108.6C151.221 106.723 150.709 104.995 149.941 103.416C149.216 101.837 148.149 100.579 146.741 99.64C145.333 98.6587 143.499 98.168 141.237 98.168C139.104 98.168 137.355 98.68 135.989 99.704C134.667 100.728 133.621 102.051 132.853 103.672C132.128 105.293 131.616 107.043 131.317 108.92C131.061 110.797 130.933 112.568 130.933 114.232C130.933 116.067 131.061 117.901 131.317 119.736C131.616 121.571 132.149 123.235 132.917 124.728C133.685 126.179 134.773 127.352 136.181 128.248C137.632 129.144 139.488 129.592 141.749 129.592C143.968 129.592 145.739 129.123 147.061 128.184C148.427 127.245 149.451 126.008 150.133 124.472C150.859 122.936 151.328 121.272 151.541 119.48C151.797 117.645 151.925 115.853 151.925 114.104ZM158.517 114.296C158.517 117.496 157.749 120.376 156.213 122.936C154.72 125.496 152.672 127.523 150.069 129.016C147.509 130.509 144.629 131.256 141.429 131.256C138.315 131.256 135.499 130.509 132.981 129.016C130.464 127.48 128.459 125.453 126.965 122.936C125.472 120.376 124.725 117.539 124.725 114.424C124.725 111.224 125.451 108.28 126.901 105.592C128.352 102.861 130.336 100.664 132.853 99C135.413 97.336 138.357 96.504 141.685 96.504C145.269 96.504 148.32 97.272 150.837 98.808C153.355 100.301 155.253 102.392 156.533 105.08C157.856 107.725 158.517 110.797 158.517 114.296ZM181.629 130.168C181.629 130.381 181.565 130.595 181.437 130.808C181.351 130.979 181.181 131.064 180.925 131.064C179.602 131.064 178.258 131.043 176.893 131C175.527 130.915 174.162 130.872 172.797 130.872H170.557C169.661 130.872 168.765 130.915 167.869 131C166.973 131.043 166.077 131.064 165.181 131.064C165.01 131.064 164.882 131 164.797 130.872C164.754 130.701 164.733 130.552 164.733 130.424C164.733 130.296 164.733 130.168 164.733 130.04C164.733 129.912 164.754 129.784 164.797 129.656C164.882 129.485 165.117 129.4 165.501 129.4C165.927 129.357 166.354 129.357 166.781 129.4C167.25 129.4 167.549 129.4 167.677 129.4C168.274 129.4 168.807 129.272 169.277 129.016C169.746 128.717 169.981 128.227 169.981 127.544C169.981 124.259 170.002 120.995 170.045 117.752C170.087 114.467 170.109 111.203 170.109 107.96C170.109 104.632 170.087 101.304 170.045 97.976C170.045 94.6053 170.045 91.256 170.045 87.928C170.045 87.6293 170.023 87.3093 169.981 86.968C169.938 86.584 169.81 86.2853 169.597 86.072C169.426 85.8587 169.255 85.752 169.085 85.752C168.914 85.7093 168.701 85.688 168.445 85.688C167.677 85.688 166.909 85.816 166.141 86.072C165.415 86.328 164.69 86.456 163.965 86.456C163.495 86.456 163.261 86.1787 163.261 85.624C163.261 85.2827 163.517 85.048 164.029 84.92C164.583 84.792 165.01 84.7067 165.309 84.664C166.802 84.3227 168.423 83.9387 170.173 83.512C171.922 83.0853 173.501 82.5947 174.909 82.04C174.994 82.04 175.079 82.0187 175.165 81.976C175.25 81.9333 175.314 81.912 175.357 81.912C175.613 81.912 175.762 81.9973 175.805 82.168C175.89 82.3387 175.933 82.5307 175.933 82.744C175.933 83.9387 175.911 85.1333 175.869 86.328C175.869 87.48 175.869 88.6533 175.869 89.848V107.768C175.869 111.053 175.89 114.36 175.933 117.688C175.975 120.973 175.997 124.259 175.997 127.544C175.997 128.227 176.274 128.717 176.829 129.016C177.426 129.272 178.002 129.4 178.557 129.4C179.026 129.4 179.474 129.379 179.901 129.336C180.327 129.293 180.754 129.272 181.181 129.272C181.394 129.272 181.522 129.4 181.565 129.656C181.607 129.869 181.629 130.04 181.629 130.168ZM213.738 114.104C213.738 112.269 213.588 110.435 213.29 108.6C213.034 106.723 212.522 104.995 211.754 103.416C211.028 101.837 209.962 100.579 208.554 99.64C207.146 98.6587 205.311 98.168 203.05 98.168C200.916 98.168 199.167 98.68 197.802 99.704C196.479 100.728 195.434 102.051 194.666 103.672C193.94 105.293 193.428 107.043 193.13 108.92C192.874 110.797 192.746 112.568 192.746 114.232C192.746 116.067 192.874 117.901 193.13 119.736C193.428 121.571 193.962 123.235 194.73 124.728C195.498 126.179 196.586 127.352 197.994 128.248C199.444 129.144 201.3 129.592 203.562 129.592C205.78 129.592 207.551 129.123 208.874 128.184C210.239 127.245 211.263 126.008 211.946 124.472C212.671 122.936 213.14 121.272 213.354 119.48C213.61 117.645 213.738 115.853 213.738 114.104ZM220.33 114.296C220.33 117.496 219.562 120.376 218.026 122.936C216.532 125.496 214.484 127.523 211.882 129.016C209.322 130.509 206.442 131.256 203.242 131.256C200.127 131.256 197.311 130.509 194.794 129.016C192.276 127.48 190.271 125.453 188.778 122.936C187.284 120.376 186.538 117.539 186.538 114.424C186.538 111.224 187.263 108.28 188.714 105.592C190.164 102.861 192.148 100.664 194.666 99C197.226 97.336 200.17 96.504 203.498 96.504C207.082 96.504 210.132 97.272 212.65 98.808C215.167 100.301 217.066 102.392 218.346 105.08C219.668 107.725 220.33 110.797 220.33 114.296ZM249.457 90.488C249.457 90.8293 249.308 91.1493 249.009 91.448C248.711 91.7467 248.391 91.896 248.049 91.896C247.452 91.896 247.047 91.64 246.833 91.128C246.62 90.5307 246.385 89.9333 246.129 89.336C245.916 88.7387 245.703 88.1413 245.489 87.544C245.148 86.6907 244.657 86.008 244.017 85.496C243.42 84.9413 242.631 84.664 241.649 84.664C240.028 84.664 238.812 85.24 238.001 86.392C237.233 87.5013 236.849 88.8027 236.849 90.296C236.849 91.7467 236.849 93.1973 236.849 94.648C236.849 96.0987 236.871 97.5707 236.913 99.064C238.279 99.064 239.644 99.064 241.009 99.064C242.375 99.0213 243.74 99 245.105 99C245.404 99 245.617 99.128 245.745 99.384C245.916 99.5973 246.001 99.832 246.001 100.088C246.001 100.387 245.937 100.643 245.809 100.856C245.681 101.069 245.447 101.176 245.105 101.176C244.252 101.176 243.399 101.176 242.545 101.176C241.692 101.133 240.839 101.112 239.985 101.112H237.105V125.88C237.105 126.819 237.319 127.672 237.745 128.44C238.172 129.165 238.919 129.528 239.985 129.528C240.455 129.528 240.903 129.507 241.329 129.464C241.799 129.379 242.247 129.336 242.673 129.336C242.929 129.336 243.1 129.464 243.185 129.72C243.313 129.933 243.377 130.147 243.377 130.36C243.377 130.829 243.143 131.064 242.673 131.064C241.223 131.064 239.751 131.043 238.257 131C236.807 130.915 235.356 130.872 233.905 130.872C233.095 130.872 232.305 130.872 231.537 130.872C230.769 130.872 230.001 130.893 229.233 130.936C228.679 130.979 228.145 131.021 227.633 131.064C227.121 131.107 226.588 131.128 226.033 131.128C225.393 131.128 225.073 130.872 225.073 130.36C225.073 129.891 225.223 129.635 225.521 129.592C225.82 129.507 226.119 129.464 226.417 129.464C226.716 129.464 226.993 129.485 227.249 129.528C227.548 129.528 227.847 129.528 228.145 129.528C229.383 129.528 230.172 129.187 230.513 128.504C230.897 127.821 231.089 126.947 231.089 125.88V101.048H227.441C227.143 101.048 226.801 101.091 226.417 101.176C226.076 101.219 225.777 101.325 225.521 101.496C225.479 101.539 225.415 101.603 225.329 101.688C225.287 101.773 225.223 101.816 225.137 101.816C224.796 101.816 224.625 101.688 224.625 101.432C224.625 101.347 224.668 101.027 224.753 100.472C224.881 99.8747 224.967 99.5547 225.009 99.512C225.095 99.2987 225.201 99.192 225.329 99.192C225.457 99.1493 225.607 99.128 225.777 99.128C226.076 99.128 226.353 99.1493 226.609 99.192C226.865 99.192 227.143 99.192 227.441 99.192H230.961C230.961 98.296 230.961 97.4 230.961 96.504C230.961 95.608 230.961 94.712 230.961 93.816C230.961 89.8907 231.985 87.16 234.033 85.624C236.124 84.0453 239.004 83.256 242.673 83.256C243.783 83.256 244.849 83.4907 245.873 83.96C246.897 84.3867 247.964 84.6 249.073 84.6C249.116 85.5813 249.18 86.5627 249.265 87.544C249.393 88.5253 249.457 89.5067 249.457 90.488ZM274.331 108.536C274.288 106.787 274.139 105.123 273.883 103.544C273.627 101.923 273.008 100.6 272.027 99.576C271.045 98.5093 269.445 97.976 267.227 97.976C265.221 97.976 263.579 98.5307 262.299 99.64C261.061 100.707 260.101 102.072 259.419 103.736C258.736 105.357 258.224 107.021 257.883 108.728C258.949 108.771 259.995 108.813 261.019 108.856C262.043 108.856 263.067 108.856 264.091 108.856C265.797 108.856 267.504 108.835 269.211 108.792C270.917 108.707 272.624 108.621 274.331 108.536ZM281.691 123.192C281.691 123.405 281.648 123.533 281.563 123.576C281.435 124.003 281.115 124.515 280.603 125.112C280.133 125.709 279.6 126.285 279.003 126.84C278.405 127.352 277.915 127.736 277.531 127.992C276.123 128.973 274.523 129.763 272.731 130.36C270.981 130.957 269.232 131.256 267.483 131.256C266.032 131.256 264.411 131.021 262.619 130.552C260.869 130.083 259.376 129.443 258.139 128.632C255.749 127.053 254 124.984 252.891 122.424C251.781 119.864 251.227 117.197 251.227 114.424C251.227 111.267 251.845 108.344 253.083 105.656C254.32 102.968 256.304 100.792 259.035 99.128C260.272 98.4027 261.659 97.8053 263.195 97.336C264.731 96.824 266.203 96.568 267.611 96.568C270.128 96.568 272.347 97.08 274.267 98.104C276.187 99.128 277.68 100.579 278.747 102.456C279.856 104.291 280.411 106.488 280.411 109.048C280.411 109.773 280.24 110.243 279.899 110.456C279.6 110.669 279.131 110.776 278.491 110.776C277.637 110.776 276.784 110.755 275.931 110.712C275.077 110.669 274.224 110.627 273.371 110.584C272.176 110.499 270.981 110.456 269.787 110.456C268.635 110.456 267.461 110.456 266.267 110.456C264.816 110.456 263.365 110.456 261.915 110.456C260.464 110.456 259.013 110.499 257.563 110.584C257.52 111.267 257.477 111.928 257.435 112.568C257.392 113.208 257.371 113.869 257.371 114.552C257.371 116.131 257.563 117.773 257.947 119.48C258.331 121.144 258.949 122.701 259.803 124.152C260.656 125.56 261.744 126.712 263.067 127.608C264.389 128.461 265.989 128.888 267.867 128.888C269.787 128.888 271.621 128.589 273.371 127.992C275.12 127.395 276.72 126.435 278.171 125.112C278.555 124.728 278.896 124.323 279.195 123.896C279.536 123.427 279.899 123.021 280.283 122.68C280.496 122.467 280.731 122.36 280.987 122.36C281.2 122.36 281.371 122.445 281.499 122.616C281.627 122.787 281.691 122.979 281.691 123.192ZM303.254 130.168C303.254 130.381 303.19 130.595 303.062 130.808C302.976 130.979 302.806 131.064 302.55 131.064C301.227 131.064 299.883 131.043 298.518 131C297.152 130.915 295.787 130.872 294.422 130.872H292.182C291.286 130.872 290.39 130.915 289.494 131C288.598 131.043 287.702 131.064 286.806 131.064C286.635 131.064 286.507 131 286.422 130.872C286.379 130.701 286.358 130.552 286.358 130.424C286.358 130.296 286.358 130.168 286.358 130.04C286.358 129.912 286.379 129.784 286.422 129.656C286.507 129.485 286.742 129.4 287.126 129.4C287.552 129.357 287.979 129.357 288.406 129.4C288.875 129.4 289.174 129.4 289.302 129.4C289.899 129.4 290.432 129.272 290.902 129.016C291.371 128.717 291.606 128.227 291.606 127.544C291.606 124.259 291.627 120.995 291.67 117.752C291.712 114.467 291.734 111.203 291.734 107.96C291.734 104.632 291.712 101.304 291.67 97.976C291.67 94.6053 291.67 91.256 291.67 87.928C291.67 87.6293 291.648 87.3093 291.606 86.968C291.563 86.584 291.435 86.2853 291.222 86.072C291.051 85.8587 290.88 85.752 290.71 85.752C290.539 85.7093 290.326 85.688 290.07 85.688C289.302 85.688 288.534 85.816 287.766 86.072C287.04 86.328 286.315 86.456 285.59 86.456C285.12 86.456 284.886 86.1787 284.886 85.624C284.886 85.2827 285.142 85.048 285.654 84.92C286.208 84.792 286.635 84.7067 286.934 84.664C288.427 84.3227 290.048 83.9387 291.798 83.512C293.547 83.0853 295.126 82.5947 296.534 82.04C296.619 82.04 296.704 82.0187 296.79 81.976C296.875 81.9333 296.939 81.912 296.982 81.912C297.238 81.912 297.387 81.9973 297.43 82.168C297.515 82.3387 297.558 82.5307 297.558 82.744C297.558 83.9387 297.536 85.1333 297.494 86.328C297.494 87.48 297.494 88.6533 297.494 89.848V107.768C297.494 111.053 297.515 114.36 297.558 117.688C297.6 120.973 297.622 124.259 297.622 127.544C297.622 128.227 297.899 128.717 298.454 129.016C299.051 129.272 299.627 129.4 300.182 129.4C300.651 129.4 301.099 129.379 301.526 129.336C301.952 129.293 302.379 129.272 302.806 129.272C303.019 129.272 303.147 129.4 303.19 129.656C303.232 129.869 303.254 130.04 303.254 130.168ZM335.363 114.104C335.363 112.269 335.213 110.435 334.915 108.6C334.659 106.723 334.147 104.995 333.379 103.416C332.653 101.837 331.587 100.579 330.179 99.64C328.771 98.6587 326.936 98.168 324.675 98.168C322.541 98.168 320.792 98.68 319.427 99.704C318.104 100.728 317.059 102.051 316.291 103.672C315.565 105.293 315.053 107.043 314.755 108.92C314.499 110.797 314.371 112.568 314.371 114.232C314.371 116.067 314.499 117.901 314.755 119.736C315.053 121.571 315.587 123.235 316.355 124.728C317.123 126.179 318.211 127.352 319.619 128.248C321.069 129.144 322.925 129.592 325.187 129.592C327.405 129.592 329.176 129.123 330.499 128.184C331.864 127.245 332.888 126.008 333.571 124.472C334.296 122.936 334.765 121.272 334.979 119.48C335.235 117.645 335.363 115.853 335.363 114.104ZM341.955 114.296C341.955 117.496 341.187 120.376 339.651 122.936C338.157 125.496 336.109 127.523 333.507 129.016C330.947 130.509 328.067 131.256 324.867 131.256C321.752 131.256 318.936 130.509 316.419 129.016C313.901 127.48 311.896 125.453 310.403 122.936C308.909 120.376 308.163 117.539 308.163 114.424C308.163 111.224 308.888 108.28 310.339 105.592C311.789 102.861 313.773 100.664 316.291 99C318.851 97.336 321.795 96.504 325.123 96.504C328.707 96.504 331.757 97.272 334.275 98.808C336.792 100.301 338.691 102.392 339.971 105.08C341.293 107.725 341.955 110.797 341.955 114.296ZM404.554 96.12C404.554 96.7173 404.298 97.016 403.786 97.016C403.616 97.016 403.466 97.016 403.338 97.016C403.21 96.9733 403.104 96.8667 403.018 96.696C402.976 96.6107 402.912 96.4187 402.826 96.12C402.784 95.7787 402.762 95.544 402.762 95.416C402.549 94.136 402.229 92.728 401.802 91.192C401.418 89.6133 400.8 88.3333 399.946 87.352C399.52 86.84 398.794 86.4987 397.77 86.328C396.746 86.1573 395.701 86.072 394.634 86.072C393.568 86.072 392.736 86.072 392.138 86.072C391.498 86.072 390.709 86.072 389.77 86.072C388.874 86.072 388.064 86.2427 387.338 86.584C386.656 86.9253 386.314 87.608 386.314 88.632C386.314 95.0747 386.336 101.539 386.378 108.024C386.464 114.467 386.506 120.931 386.506 127.416C386.506 127.971 386.741 128.397 387.21 128.696C387.68 128.952 388.213 129.123 388.81 129.208C389.408 129.293 389.898 129.336 390.282 129.336C390.624 129.336 390.922 129.336 391.178 129.336C391.477 129.293 391.776 129.272 392.074 129.272C392.501 129.272 392.714 129.464 392.714 129.848C392.714 130.019 392.714 130.275 392.714 130.616C392.714 130.915 392.565 131.064 392.266 131.064C390.73 131.064 389.194 131.043 387.658 131C386.165 130.915 384.65 130.872 383.114 130.872C381.066 130.872 378.976 130.936 376.842 131.064C376.373 131.064 375.882 131.085 375.37 131.128C374.858 131.171 374.368 131.192 373.898 131.192C373.514 131.192 373.322 130.957 373.322 130.488C373.322 129.976 373.386 129.656 373.514 129.528C373.642 129.4 373.941 129.336 374.41 129.336C374.496 129.336 374.581 129.357 374.666 129.4C374.794 129.4 374.88 129.4 374.922 129.4C375.392 129.4 375.989 129.357 376.714 129.272C377.44 129.187 378.08 129.016 378.634 128.76C379.232 128.461 379.53 128.013 379.53 127.416C379.573 124.131 379.594 120.845 379.594 117.56C379.637 114.275 379.658 110.989 379.658 107.704C379.658 104.461 379.637 101.24 379.594 98.04C379.552 94.7973 379.53 91.5547 379.53 88.312C379.53 87.8 379.317 87.3307 378.89 86.904C378.506 86.4773 378.08 86.2427 377.61 86.2C377.226 86.1147 376.821 86.072 376.394 86.072C376.01 86.072 375.605 86.072 375.178 86.072H369.482C367.946 86.072 366.794 86.456 366.026 87.224C365.301 87.9493 364.789 88.9093 364.49 90.104C364.192 91.256 363.914 92.4507 363.658 93.688C363.658 93.7733 363.594 94.072 363.466 94.584C363.381 95.0533 363.274 95.5227 363.146 95.992C363.061 96.4187 362.997 96.6533 362.954 96.696C362.784 96.9093 362.528 97.016 362.186 97.016C361.717 97.016 361.482 96.7813 361.482 96.312C361.482 96.1413 361.482 95.928 361.482 95.672C361.525 95.3733 361.568 95.032 361.61 94.648C361.696 93.6667 361.76 92.4933 361.802 91.128C361.888 89.72 361.952 88.4187 361.994 87.224C362.037 86.7973 362.058 86.3707 362.058 85.944C362.058 85.5173 362.08 85.1333 362.122 84.792C362.122 84.1947 362.485 83.9387 363.21 84.024C366.325 84.3227 369.461 84.472 372.618 84.472C375.818 84.4293 378.976 84.408 382.09 84.408H387.53C389.28 84.408 391.029 84.408 392.778 84.408C394.57 84.3653 396.362 84.3227 398.154 84.28C398.922 84.2373 399.712 84.216 400.522 84.216C401.376 84.1733 402.208 84.152 403.018 84.152C403.573 84.152 403.893 84.3653 403.978 84.792C404.021 84.92 404.064 85.3893 404.106 86.2C404.149 86.968 404.192 87.864 404.234 88.888C404.277 89.8693 404.298 90.808 404.298 91.704C404.341 92.5573 404.362 93.1547 404.362 93.496C404.405 93.9227 404.448 94.3493 404.49 94.776C404.533 95.2027 404.554 95.6507 404.554 96.12ZM428.262 123.512C428.091 121.592 427.984 119.672 427.942 117.752C427.942 115.789 427.92 113.827 427.878 111.864H426.982C425.659 111.864 424.187 112.077 422.566 112.504C420.987 112.888 419.472 113.485 418.022 114.296C416.571 115.107 415.376 116.131 414.438 117.368C413.542 118.563 413.094 119.949 413.094 121.528C413.094 123.576 413.67 125.133 414.822 126.2C415.974 127.224 417.531 127.736 419.494 127.736C420.432 127.736 421.456 127.523 422.566 127.096C423.675 126.627 424.742 126.072 425.766 125.432C426.79 124.792 427.622 124.152 428.262 123.512ZM439.462 127.608C439.462 127.779 439.44 127.907 439.398 127.992C438.971 128.931 438.246 129.656 437.222 130.168C436.24 130.637 435.259 130.872 434.278 130.872C432.486 130.872 431.184 130.36 430.374 129.336C429.606 128.269 428.987 126.968 428.518 125.432C426.896 126.925 425.104 128.184 423.142 129.208C421.179 130.189 419.067 130.68 416.806 130.68C415.227 130.68 413.734 130.381 412.326 129.784C410.96 129.144 409.851 128.227 408.998 127.032C408.144 125.837 407.718 124.387 407.718 122.68C407.718 120.888 408.166 119.352 409.062 118.072C410 116.749 411.174 115.64 412.582 114.744C414.032 113.805 415.568 113.059 417.19 112.504C418.854 111.907 420.411 111.459 421.862 111.16C422.843 110.947 423.846 110.755 424.87 110.584C425.894 110.413 426.896 110.243 427.878 110.072C427.878 108.877 427.814 107.491 427.686 105.912C427.6 104.333 427.28 103.032 426.726 102.008C426.171 101.027 425.424 100.152 424.486 99.384C423.547 98.616 422.502 98.232 421.35 98.232C419.387 98.232 417.851 98.744 416.742 99.768C415.632 100.792 414.843 102.243 414.374 104.12C414.331 104.333 414.288 104.568 414.246 104.824C414.246 105.037 414.224 105.251 414.182 105.464C414.139 105.72 413.968 105.955 413.67 106.168C413.414 106.339 413.136 106.424 412.838 106.424C412.027 106.424 411.28 106.232 410.598 105.848C409.958 105.464 409.638 104.824 409.638 103.928C409.638 103.416 409.723 102.968 409.894 102.584C410.448 101.261 411.344 100.173 412.582 99.32C413.819 98.424 415.184 97.7413 416.678 97.272C418.214 96.8027 419.643 96.568 420.966 96.568C423.27 96.568 425.36 96.9947 427.238 97.848C429.115 98.7013 430.608 99.96 431.718 101.624C432.87 103.245 433.446 105.293 433.446 107.768C433.446 110.541 433.424 113.336 433.382 116.152C433.382 118.968 433.467 121.784 433.638 124.6C433.68 125.539 433.872 126.371 434.214 127.096C434.555 127.779 435.259 128.12 436.326 128.12C436.88 128.12 437.456 127.992 438.054 127.736C438.694 127.437 439.099 127.288 439.27 127.288C439.398 127.288 439.462 127.395 439.462 127.608ZM479.458 129.272C479.458 129.784 479.074 130.168 478.306 130.424C477.581 130.68 476.77 130.851 475.874 130.936C474.978 131.021 474.338 131.064 473.954 131.064C472.504 131.064 471.352 130.488 470.498 129.336C469.645 128.184 469.005 126.989 468.578 125.752C467.128 127.587 465.314 128.952 463.138 129.848C460.962 130.744 458.701 131.192 456.354 131.192C452.514 131.192 449.848 130.211 448.354 128.248C446.904 126.243 446.178 123.427 446.178 119.8C446.178 116.6 446.178 113.4 446.178 110.2C446.221 106.957 446.264 103.736 446.306 100.536C446.306 99.256 445.688 98.616 444.45 98.616C444.109 98.616 443.768 98.6373 443.426 98.68C443.085 98.7227 442.744 98.744 442.402 98.744C442.274 98.744 442.168 98.68 442.082 98.552C442.04 98.3813 442.018 98.2533 442.018 98.168C442.018 97.6987 442.232 97.4427 442.658 97.4C444.152 97.2293 445.645 97.1227 447.138 97.08C448.674 96.9947 450.189 96.8667 451.682 96.696C452.024 97.0373 452.194 97.464 452.194 97.976C452.194 99.0427 452.173 100.131 452.13 101.24C452.088 102.349 452.066 103.459 452.066 104.568C452.024 107.171 451.981 109.795 451.938 112.44C451.938 115.043 451.938 117.667 451.938 120.312C451.938 121.123 451.96 121.997 452.002 122.936C452.045 123.832 452.216 124.664 452.514 125.432C452.984 126.627 453.858 127.48 455.138 127.992C456.461 128.461 457.72 128.696 458.914 128.696C460.237 128.696 461.56 128.461 462.882 127.992C464.248 127.48 465.4 126.755 466.338 125.816C467.32 124.835 467.874 123.619 468.002 122.168C468.088 121.443 468.13 120.717 468.13 119.992C468.173 119.224 468.194 118.477 468.194 117.752L468.13 100.344C468.13 99.7893 467.938 99.384 467.554 99.128C467.213 98.872 466.808 98.744 466.338 98.744C465.912 98.744 465.485 98.7653 465.058 98.808C464.674 98.8507 464.269 98.872 463.842 98.872C463.458 98.872 463.266 98.6587 463.266 98.232C463.266 97.8053 463.458 97.5707 463.842 97.528C464.354 97.4427 464.888 97.4 465.442 97.4C465.997 97.3573 466.552 97.3147 467.106 97.272L471.522 96.824C471.821 96.7813 472.12 96.7387 472.418 96.696C472.76 96.6533 473.08 96.632 473.378 96.632C473.592 96.632 473.741 96.76 473.826 97.016C473.912 97.2293 473.954 97.4 473.954 97.528C473.826 106.787 473.762 116.024 473.762 125.24C473.762 126.307 473.997 127.181 474.466 127.864C474.978 128.547 475.81 128.888 476.962 128.888C477.304 128.888 477.602 128.845 477.858 128.76C478.157 128.675 478.456 128.632 478.754 128.632C479.224 128.632 479.458 128.845 479.458 129.272ZM519.582 130.04C519.582 130.595 519.262 130.872 518.622 130.872C517.683 130.872 516.723 130.851 515.742 130.808C514.76 130.723 513.779 130.68 512.798 130.68C511.347 130.68 509.854 130.723 508.318 130.808C506.824 130.851 505.331 130.872 503.838 130.872C503.667 130.872 503.56 130.744 503.518 130.488C503.475 130.189 503.454 129.955 503.454 129.784C503.454 129.443 503.667 129.272 504.094 129.272C504.52 129.272 504.862 129.272 505.118 129.272C505.331 129.272 505.544 129.293 505.758 129.336C506.014 129.336 506.248 129.336 506.462 129.336C507.699 129.336 508.382 128.717 508.51 127.48C508.638 124.963 508.68 122.424 508.638 119.864C508.638 117.304 508.638 114.765 508.638 112.248C508.638 111.779 508.638 111.309 508.638 110.84C508.638 110.328 508.638 109.837 508.638 109.368C508.595 108.387 508.531 107.192 508.446 105.784C508.36 104.333 508.168 103.16 507.87 102.264C507.187 100.045 505.694 98.936 503.39 98.936C501.299 98.936 499.379 99.4693 497.63 100.536C495.88 101.603 494.366 102.947 493.086 104.568C493.043 107.683 493.022 110.776 493.022 113.848C493.022 116.92 493.022 119.992 493.022 123.064V127.48C493.022 128.12 493.299 128.589 493.854 128.888C494.408 129.187 494.963 129.336 495.518 129.336C495.859 129.336 496.179 129.315 496.478 129.272C496.819 129.187 497.139 129.144 497.438 129.144C497.608 129.144 497.715 129.251 497.758 129.464C497.8 129.677 497.822 129.848 497.822 129.976C497.822 130.147 497.758 130.339 497.63 130.552C497.544 130.765 497.374 130.872 497.118 130.872C496.179 130.872 495.24 130.851 494.302 130.808C493.406 130.723 492.488 130.68 491.55 130.68C490.099 130.68 488.648 130.723 487.198 130.808C485.747 130.851 484.275 130.872 482.782 130.872C482.568 130.872 482.44 130.744 482.398 130.488C482.398 130.189 482.398 129.955 482.398 129.784C482.398 129.443 482.59 129.272 482.974 129.272C483.358 129.272 483.656 129.272 483.87 129.272C484.083 129.272 484.296 129.293 484.51 129.336C484.723 129.336 484.936 129.336 485.15 129.336C486.387 129.336 487.07 128.717 487.198 127.48C487.24 126.883 487.262 126.285 487.262 125.688C487.262 125.091 487.262 124.493 487.262 123.896C487.262 120.227 487.262 116.557 487.262 112.888C487.262 109.176 487.24 105.485 487.198 101.816C487.198 101.219 487.07 100.621 486.814 100.024C486.558 99.4267 486.067 99.128 485.342 99.128C484.787 99.128 484.254 99.2133 483.742 99.384C483.23 99.5547 482.696 99.64 482.142 99.64C481.843 99.64 481.694 99.4267 481.694 99C481.694 98.9147 481.694 98.8293 481.694 98.744C481.736 98.616 481.779 98.5307 481.822 98.488C481.864 98.4453 481.928 98.424 482.014 98.424C482.099 98.3813 482.163 98.3387 482.206 98.296C482.974 98.0827 483.763 97.9333 484.574 97.848C485.427 97.7627 486.238 97.6347 487.006 97.464C487.731 97.336 488.435 97.1653 489.118 96.952C489.8 96.696 490.483 96.568 491.166 96.568C491.464 96.568 491.699 96.7173 491.87 97.016C492.083 97.4 492.254 97.9547 492.382 98.68C492.51 99.3627 492.595 100.067 492.638 100.792C492.723 101.517 492.766 102.115 492.766 102.584C493.704 101.645 494.814 100.728 496.094 99.832C497.416 98.8933 498.782 98.1253 500.19 97.528C501.64 96.888 503.048 96.568 504.414 96.568C508.339 96.568 510.984 97.4427 512.35 99.192C513.758 100.899 514.462 103.608 514.462 107.32C514.462 110.648 514.44 113.976 514.398 117.304C514.398 120.632 514.398 123.96 514.398 127.288C514.398 128.099 514.632 128.653 515.102 128.952C515.614 129.208 516.211 129.336 516.894 129.336C517.235 129.336 517.576 129.315 517.918 129.272C518.259 129.187 518.579 129.144 518.878 129.144C519.134 129.144 519.304 129.251 519.39 129.464C519.518 129.635 519.582 129.827 519.582 130.04ZM559.059 97.272C559.059 97.6987 558.91 97.9333 558.611 97.976C558.313 98.0187 557.907 98.04 557.395 98.04C556.926 98.04 556.435 98.1467 555.923 98.36C555.454 98.5733 555.027 99.064 554.643 99.832C552.553 103.928 550.633 108.109 548.883 112.376C547.134 116.643 545.214 120.824 543.123 124.92C541.886 127.395 540.649 129.869 539.411 132.344C538.217 134.861 536.873 137.293 535.379 139.64C534.569 140.92 533.609 141.944 532.499 142.712C531.39 143.48 530.067 143.864 528.531 143.864C527.251 143.864 526.078 143.587 525.011 143.032C523.987 142.477 523.475 141.475 523.475 140.024C523.475 139.085 523.817 138.296 524.499 137.656C525.225 137.016 526.035 136.696 526.931 136.696C527.315 136.696 527.699 136.76 528.083 136.888C527.827 137.4 527.699 137.891 527.699 138.36C527.699 139 527.934 139.491 528.403 139.832C528.915 140.216 529.449 140.408 530.003 140.408C530.857 140.408 531.625 140.152 532.307 139.64C533.033 139.171 533.609 138.595 534.035 137.912C534.803 136.76 535.443 135.48 535.955 134.072C536.51 132.664 536.787 131.277 536.787 129.912C536.787 129.315 536.745 128.717 536.659 128.12C536.574 127.523 536.446 126.947 536.275 126.392C536.019 125.496 535.721 124.621 535.379 123.768C535.038 122.872 534.697 121.997 534.355 121.144C533.801 119.779 533.246 118.435 532.691 117.112C532.179 115.789 531.625 114.467 531.027 113.144C530.217 111.224 529.406 109.304 528.595 107.384C527.827 105.421 526.974 103.523 526.035 101.688C525.907 101.475 525.779 101.261 525.651 101.048C525.566 100.835 525.438 100.621 525.267 100.408C525.054 100.067 524.777 99.7893 524.435 99.576C524.137 99.32 523.753 99.192 523.283 99.192C522.985 99.192 522.665 99.2133 522.323 99.256C521.982 99.2987 521.641 99.32 521.299 99.32C521.086 99.32 520.915 99.2347 520.787 99.064C520.659 98.8507 520.595 98.6587 520.595 98.488C520.595 98.1467 520.787 97.9333 521.171 97.848C521.598 97.72 522.025 97.6347 522.451 97.592C522.921 97.5493 523.369 97.5067 523.795 97.464C524.734 97.2933 525.673 97.1227 526.611 96.952C527.55 96.7813 528.489 96.6533 529.427 96.568C529.555 96.5253 529.683 96.504 529.811 96.504C529.939 96.504 530.067 96.504 530.195 96.504C530.622 96.504 530.899 96.632 531.027 96.888C531.198 97.144 531.369 97.4427 531.539 97.784C532.521 99.9173 533.417 102.115 534.227 104.376C535.038 106.595 535.849 108.813 536.659 111.032C537.513 113.123 538.323 115.235 539.091 117.368C539.859 119.501 540.649 121.635 541.459 123.768C541.758 123.213 542.185 122.296 542.739 121.016C543.337 119.693 543.998 118.2 544.723 116.536C545.491 114.829 546.259 113.059 547.027 111.224C547.795 109.389 548.499 107.64 549.139 105.976C549.822 104.312 550.355 102.883 550.739 101.688C551.166 100.451 551.379 99.5973 551.379 99.128C551.379 98.5733 551.102 98.2533 550.547 98.168C549.993 98.04 549.374 97.9973 548.691 98.04C548.009 98.0827 547.497 98.104 547.155 98.104C546.985 98.104 546.835 98.0187 546.707 97.848C546.579 97.6773 546.515 97.5067 546.515 97.336C546.515 96.9093 546.729 96.696 547.155 96.696C547.625 96.6533 547.987 96.632 548.243 96.632C548.969 96.632 549.715 96.6533 550.483 96.696C551.251 96.696 551.998 96.696 552.723 96.696C553.705 96.696 554.665 96.6747 555.603 96.632C556.585 96.5893 557.545 96.568 558.483 96.568C558.697 96.568 558.846 96.6533 558.931 96.824C559.017 96.952 559.059 97.1013 559.059 97.272ZM581.699 123.512C581.529 121.592 581.422 119.672 581.379 117.752C581.379 115.789 581.358 113.827 581.315 111.864H580.419C579.097 111.864 577.625 112.077 576.003 112.504C574.425 112.888 572.91 113.485 571.459 114.296C570.009 115.107 568.814 116.131 567.875 117.368C566.979 118.563 566.531 119.949 566.531 121.528C566.531 123.576 567.107 125.133 568.259 126.2C569.411 127.224 570.969 127.736 572.931 127.736C573.87 127.736 574.894 127.523 576.003 127.096C577.113 126.627 578.179 126.072 579.203 125.432C580.227 124.792 581.059 124.152 581.699 123.512ZM592.899 127.608C592.899 127.779 592.878 127.907 592.835 127.992C592.409 128.931 591.683 129.656 590.659 130.168C589.678 130.637 588.697 130.872 587.715 130.872C585.923 130.872 584.622 130.36 583.811 129.336C583.043 128.269 582.425 126.968 581.955 125.432C580.334 126.925 578.542 128.184 576.579 129.208C574.617 130.189 572.505 130.68 570.243 130.68C568.665 130.68 567.171 130.381 565.763 129.784C564.398 129.144 563.289 128.227 562.435 127.032C561.582 125.837 561.155 124.387 561.155 122.68C561.155 120.888 561.603 119.352 562.499 118.072C563.438 116.749 564.611 115.64 566.019 114.744C567.47 113.805 569.006 113.059 570.627 112.504C572.291 111.907 573.849 111.459 575.299 111.16C576.281 110.947 577.283 110.755 578.307 110.584C579.331 110.413 580.334 110.243 581.315 110.072C581.315 108.877 581.251 107.491 581.123 105.912C581.038 104.333 580.718 103.032 580.163 102.008C579.609 101.027 578.862 100.152 577.923 99.384C576.985 98.616 575.939 98.232 574.787 98.232C572.825 98.232 571.289 98.744 570.179 99.768C569.07 100.792 568.281 102.243 567.811 104.12C567.769 104.333 567.726 104.568 567.683 104.824C567.683 105.037 567.662 105.251 567.619 105.464C567.577 105.72 567.406 105.955 567.107 106.168C566.851 106.339 566.574 106.424 566.275 106.424C565.465 106.424 564.718 106.232 564.035 105.848C563.395 105.464 563.075 104.824 563.075 103.928C563.075 103.416 563.161 102.968 563.331 102.584C563.886 101.261 564.782 100.173 566.019 99.32C567.257 98.424 568.622 97.7413 570.115 97.272C571.651 96.8027 573.081 96.568 574.403 96.568C576.707 96.568 578.798 96.9947 580.675 97.848C582.553 98.7013 584.046 99.96 585.155 101.624C586.307 103.245 586.883 105.293 586.883 107.768C586.883 110.541 586.862 113.336 586.819 116.152C586.819 118.968 586.905 121.784 587.075 124.6C587.118 125.539 587.31 126.371 587.651 127.096C587.993 127.779 588.697 128.12 589.763 128.12C590.318 128.12 590.894 127.992 591.491 127.736C592.131 127.437 592.537 127.288 592.707 127.288C592.835 127.288 592.899 127.395 592.899 127.608ZM632.832 130.04C632.832 130.595 632.512 130.872 631.872 130.872C630.933 130.872 629.973 130.851 628.992 130.808C628.01 130.723 627.029 130.68 626.048 130.68C624.597 130.68 623.104 130.723 621.568 130.808C620.074 130.851 618.581 130.872 617.088 130.872C616.917 130.872 616.81 130.744 616.768 130.488C616.725 130.189 616.704 129.955 616.704 129.784C616.704 129.443 616.917 129.272 617.344 129.272C617.77 129.272 618.112 129.272 618.368 129.272C618.581 129.272 618.794 129.293 619.008 129.336C619.264 129.336 619.498 129.336 619.712 129.336C620.949 129.336 621.632 128.717 621.76 127.48C621.888 124.963 621.93 122.424 621.888 119.864C621.888 117.304 621.888 114.765 621.888 112.248C621.888 111.779 621.888 111.309 621.888 110.84C621.888 110.328 621.888 109.837 621.888 109.368C621.845 108.387 621.781 107.192 621.696 105.784C621.61 104.333 621.418 103.16 621.12 102.264C620.437 100.045 618.944 98.936 616.64 98.936C614.549 98.936 612.629 99.4693 610.88 100.536C609.13 101.603 607.616 102.947 606.336 104.568C606.293 107.683 606.272 110.776 606.272 113.848C606.272 116.92 606.272 119.992 606.272 123.064V127.48C606.272 128.12 606.549 128.589 607.104 128.888C607.658 129.187 608.213 129.336 608.768 129.336C609.109 129.336 609.429 129.315 609.728 129.272C610.069 129.187 610.389 129.144 610.688 129.144C610.858 129.144 610.965 129.251 611.008 129.464C611.05 129.677 611.072 129.848 611.072 129.976C611.072 130.147 611.008 130.339 610.88 130.552C610.794 130.765 610.624 130.872 610.368 130.872C609.429 130.872 608.49 130.851 607.552 130.808C606.656 130.723 605.738 130.68 604.8 130.68C603.349 130.68 601.898 130.723 600.448 130.808C598.997 130.851 597.525 130.872 596.032 130.872C595.818 130.872 595.69 130.744 595.648 130.488C595.648 130.189 595.648 129.955 595.648 129.784C595.648 129.443 595.84 129.272 596.224 129.272C596.608 129.272 596.906 129.272 597.12 129.272C597.333 129.272 597.546 129.293 597.76 129.336C597.973 129.336 598.186 129.336 598.4 129.336C599.637 129.336 600.32 128.717 600.448 127.48C600.49 126.883 600.512 126.285 600.512 125.688C600.512 125.091 600.512 124.493 600.512 123.896C600.512 120.227 600.512 116.557 600.512 112.888C600.512 109.176 600.49 105.485 600.448 101.816C600.448 101.219 600.32 100.621 600.064 100.024C599.808 99.4267 599.317 99.128 598.592 99.128C598.037 99.128 597.504 99.2133 596.992 99.384C596.48 99.5547 595.946 99.64 595.392 99.64C595.093 99.64 594.944 99.4267 594.944 99C594.944 98.9147 594.944 98.8293 594.944 98.744C594.986 98.616 595.029 98.5307 595.072 98.488C595.114 98.4453 595.178 98.424 595.264 98.424C595.349 98.3813 595.413 98.3387 595.456 98.296C596.224 98.0827 597.013 97.9333 597.824 97.848C598.677 97.7627 599.488 97.6347 600.256 97.464C600.981 97.336 601.685 97.1653 602.368 96.952C603.05 96.696 603.733 96.568 604.416 96.568C604.714 96.568 604.949 96.7173 605.12 97.016C605.333 97.4 605.504 97.9547 605.632 98.68C605.76 99.3627 605.845 100.067 605.888 100.792C605.973 101.517 606.016 102.115 606.016 102.584C606.954 101.645 608.064 100.728 609.344 99.832C610.666 98.8933 612.032 98.1253 613.44 97.528C614.89 96.888 616.298 96.568 617.664 96.568C621.589 96.568 624.234 97.4427 625.6 99.192C627.008 100.899 627.712 103.608 627.712 107.32C627.712 110.648 627.69 113.976 627.648 117.304C627.648 120.632 627.648 123.96 627.648 127.288C627.648 128.099 627.882 128.653 628.352 128.952C628.864 129.208 629.461 129.336 630.144 129.336C630.485 129.336 630.826 129.315 631.168 129.272C631.509 129.187 631.829 129.144 632.128 129.144C632.384 129.144 632.554 129.251 632.64 129.464C632.768 129.635 632.832 129.827 632.832 130.04ZM659.893 108.536C659.851 106.787 659.701 105.123 659.445 103.544C659.189 101.923 658.571 100.6 657.589 99.576C656.608 98.5093 655.008 97.976 652.789 97.976C650.784 97.976 649.141 98.5307 647.861 99.64C646.624 100.707 645.664 102.072 644.981 103.736C644.299 105.357 643.787 107.021 643.445 108.728C644.512 108.771 645.557 108.813 646.581 108.856C647.605 108.856 648.629 108.856 649.653 108.856C651.36 108.856 653.067 108.835 654.773 108.792C656.48 108.707 658.187 108.621 659.893 108.536ZM667.253 123.192C667.253 123.405 667.211 123.533 667.125 123.576C666.997 124.003 666.677 124.515 666.165 125.112C665.696 125.709 665.163 126.285 664.565 126.84C663.968 127.352 663.477 127.736 663.093 127.992C661.685 128.973 660.085 129.763 658.293 130.36C656.544 130.957 654.795 131.256 653.045 131.256C651.595 131.256 649.973 131.021 648.181 130.552C646.432 130.083 644.939 129.443 643.701 128.632C641.312 127.053 639.563 124.984 638.453 122.424C637.344 119.864 636.789 117.197 636.789 114.424C636.789 111.267 637.408 108.344 638.645 105.656C639.883 102.968 641.867 100.792 644.597 99.128C645.835 98.4027 647.221 97.8053 648.757 97.336C650.293 96.824 651.765 96.568 653.173 96.568C655.691 96.568 657.909 97.08 659.829 98.104C661.749 99.128 663.243 100.579 664.309 102.456C665.419 104.291 665.973 106.488 665.973 109.048C665.973 109.773 665.803 110.243 665.461 110.456C665.163 110.669 664.693 110.776 664.053 110.776C663.2 110.776 662.347 110.755 661.493 110.712C660.64 110.669 659.787 110.627 658.933 110.584C657.739 110.499 656.544 110.456 655.349 110.456C654.197 110.456 653.024 110.456 651.829 110.456C650.379 110.456 648.928 110.456 647.477 110.456C646.027 110.456 644.576 110.499 643.125 110.584C643.083 111.267 643.04 111.928 642.997 112.568C642.955 113.208 642.933 113.869 642.933 114.552C642.933 116.131 643.125 117.773 643.509 119.48C643.893 121.144 644.512 122.701 645.365 124.152C646.219 125.56 647.307 126.712 648.629 127.608C649.952 128.461 651.552 128.888 653.429 128.888C655.349 128.888 657.184 128.589 658.933 127.992C660.683 127.395 662.283 126.435 663.733 125.112C664.117 124.728 664.459 124.323 664.757 123.896C665.099 123.427 665.461 123.021 665.845 122.68C666.059 122.467 666.293 122.36 666.549 122.36C666.763 122.36 666.933 122.445 667.061 122.616C667.189 122.787 667.253 122.979 667.253 123.192Z" fill="#F2F2F2"/>
<path d="M194.53 204.864C195.954 204.864 197.146 205 198.106 205.272C199.082 205.544 199.81 205.992 200.29 206.616C200.786 207.24 201.034 208.072 201.034 209.112C201.034 209.784 200.906 210.384 200.65 210.912C200.41 211.424 200.042 211.856 199.546 212.208C199.066 212.544 198.474 212.776 197.77 212.904V213.024C198.49 213.136 199.138 213.344 199.714 213.648C200.306 213.952 200.77 214.384 201.106 214.944C201.442 215.504 201.61 216.232 201.61 217.128C201.61 218.168 201.37 219.056 200.89 219.792C200.41 220.512 199.722 221.064 198.826 221.448C197.946 221.816 196.89 222 195.658 222H189.634V204.864H194.53ZM194.962 212.16C196.434 212.16 197.442 211.928 197.986 211.464C198.53 210.984 198.802 210.28 198.802 209.352C198.802 208.408 198.466 207.736 197.794 207.336C197.138 206.92 196.082 206.712 194.626 206.712H191.794V212.16H194.962ZM191.794 213.96V220.176H195.25C196.77 220.176 197.826 219.88 198.418 219.288C199.01 218.696 199.306 217.92 199.306 216.96C199.306 216.352 199.17 215.824 198.898 215.376C198.642 214.928 198.202 214.584 197.578 214.344C196.97 214.088 196.138 213.96 195.082 213.96H191.794ZM216.188 206.52C215.276 206.52 214.452 206.68 213.716 207C212.98 207.304 212.356 207.76 211.844 208.368C211.332 208.96 210.94 209.688 210.668 210.552C210.396 211.4 210.26 212.36 210.26 213.432C210.26 214.84 210.476 216.064 210.908 217.104C211.356 218.144 212.012 218.944 212.876 219.504C213.756 220.064 214.852 220.344 216.164 220.344C216.916 220.344 217.628 220.28 218.3 220.152C218.972 220.024 219.628 219.864 220.268 219.672V221.544C219.628 221.784 218.964 221.96 218.276 222.072C217.604 222.184 216.796 222.24 215.852 222.24C214.108 222.24 212.652 221.88 211.484 221.16C210.316 220.44 209.436 219.416 208.844 218.088C208.268 216.76 207.98 215.2 207.98 213.408C207.98 212.112 208.156 210.928 208.508 209.856C208.876 208.784 209.404 207.856 210.092 207.072C210.796 206.288 211.66 205.688 212.684 205.272C213.708 204.84 214.884 204.624 216.212 204.624C217.092 204.624 217.94 204.712 218.756 204.888C219.572 205.064 220.3 205.312 220.94 205.632L220.076 207.456C219.548 207.216 218.956 207 218.3 206.808C217.66 206.616 216.956 206.52 216.188 206.52ZM242.091 213.408C242.091 214.736 241.923 215.944 241.587 217.032C241.251 218.104 240.747 219.032 240.075 219.816C239.419 220.6 238.595 221.2 237.603 221.616C236.627 222.032 235.491 222.24 234.195 222.24C232.851 222.24 231.683 222.032 230.691 221.616C229.699 221.184 228.875 220.584 228.219 219.816C227.563 219.032 227.075 218.096 226.755 217.008C226.435 215.92 226.275 214.712 226.275 213.384C226.275 211.624 226.563 210.088 227.139 208.776C227.715 207.464 228.587 206.44 229.755 205.704C230.939 204.968 232.427 204.6 234.219 204.6C235.931 204.6 237.371 204.968 238.539 205.704C239.707 206.424 240.587 207.448 241.179 208.776C241.787 210.088 242.091 211.632 242.091 213.408ZM228.555 213.408C228.555 214.848 228.755 216.088 229.155 217.128C229.555 218.168 230.171 218.968 231.003 219.528C231.851 220.088 232.915 220.368 234.195 220.368C235.491 220.368 236.547 220.088 237.363 219.528C238.195 218.968 238.811 218.168 239.211 217.128C239.611 216.088 239.811 214.848 239.811 213.408C239.811 211.248 239.363 209.56 238.467 208.344C237.571 207.112 236.155 206.496 234.219 206.496C232.923 206.496 231.851 206.776 231.003 207.336C230.171 207.88 229.555 208.672 229.155 209.712C228.755 210.736 228.555 211.968 228.555 213.408ZM257.049 222L251.409 206.976H251.313C251.345 207.296 251.369 207.704 251.385 208.2C251.417 208.696 251.441 209.24 251.457 209.832C251.473 210.408 251.481 211 251.481 211.608V222H249.489V204.864H252.681L257.961 218.904H258.057L263.433 204.864H266.601V222H264.465V211.464C264.465 210.904 264.473 210.352 264.489 209.808C264.505 209.248 264.529 208.728 264.561 208.248C264.593 207.752 264.617 207.336 264.633 207H264.537L258.825 222H257.049ZM294.417 217.416C294.417 218.44 294.169 219.312 293.673 220.032C293.177 220.736 292.465 221.28 291.537 221.664C290.625 222.048 289.545 222.24 288.297 222.24C287.657 222.24 287.041 222.208 286.449 222.144C285.873 222.08 285.345 221.992 284.865 221.88C284.385 221.752 283.961 221.6 283.593 221.424V219.36C284.169 219.616 284.881 219.848 285.729 220.056C286.593 220.264 287.481 220.368 288.393 220.368C289.241 220.368 289.953 220.256 290.529 220.032C291.105 219.808 291.537 219.488 291.825 219.072C292.113 218.656 292.257 218.168 292.257 217.608C292.257 217.048 292.137 216.576 291.897 216.192C291.657 215.808 291.241 215.456 290.649 215.136C290.073 214.8 289.265 214.448 288.225 214.08C287.489 213.808 286.841 213.52 286.281 213.216C285.737 212.896 285.281 212.536 284.913 212.136C284.545 211.736 284.265 211.28 284.073 210.768C283.897 210.256 283.809 209.664 283.809 208.992C283.809 208.08 284.041 207.304 284.505 206.664C284.969 206.008 285.609 205.504 286.425 205.152C287.257 204.8 288.209 204.624 289.281 204.624C290.225 204.624 291.089 204.712 291.873 204.888C292.657 205.064 293.369 205.296 294.009 205.584L293.337 207.432C292.745 207.176 292.097 206.96 291.393 206.784C290.705 206.608 289.985 206.52 289.233 206.52C288.513 206.52 287.913 206.624 287.433 206.832C286.953 207.04 286.593 207.336 286.353 207.72C286.113 208.088 285.993 208.52 285.993 209.016C285.993 209.592 286.113 210.072 286.353 210.456C286.593 210.84 286.985 211.184 287.529 211.488C288.073 211.792 288.809 212.12 289.737 212.472C290.745 212.84 291.593 213.24 292.281 213.672C292.985 214.088 293.513 214.592 293.865 215.184C294.233 215.776 294.417 216.52 294.417 217.416ZM314.501 215.952C314.501 217.136 314.261 218.208 313.781 219.168C313.301 220.112 312.565 220.864 311.573 221.424C310.597 221.968 309.349 222.24 307.829 222.24C305.701 222.24 304.077 221.664 302.957 220.512C301.853 219.344 301.301 217.808 301.301 215.904V204.864H303.461V215.976C303.461 217.368 303.829 218.448 304.565 219.216C305.317 219.984 306.445 220.368 307.949 220.368C308.989 220.368 309.829 220.184 310.469 219.816C311.125 219.432 311.605 218.912 311.909 218.256C312.213 217.584 312.365 216.816 312.365 215.952V204.864H314.501V215.952ZM327.159 204.864C329.399 204.864 331.031 205.304 332.055 206.184C333.079 207.064 333.591 208.304 333.591 209.904C333.591 210.608 333.471 211.288 333.231 211.944C333.007 212.584 332.631 213.16 332.103 213.672C331.575 214.184 330.871 214.592 329.991 214.896C329.111 215.184 328.031 215.328 326.751 215.328H324.783V222H322.623V204.864H327.159ZM326.967 206.712H324.783V213.48H326.511C327.599 213.48 328.503 213.368 329.223 213.144C329.943 212.904 330.479 212.528 330.831 212.016C331.183 211.504 331.359 210.832 331.359 210C331.359 208.896 331.007 208.072 330.303 207.528C329.599 206.984 328.487 206.712 326.967 206.712ZM345.291 204.864C347.531 204.864 349.163 205.304 350.187 206.184C351.211 207.064 351.723 208.304 351.723 209.904C351.723 210.608 351.603 211.288 351.363 211.944C351.139 212.584 350.763 213.16 350.235 213.672C349.707 214.184 349.003 214.592 348.123 214.896C347.243 215.184 346.163 215.328 344.883 215.328H342.915V222H340.755V204.864H345.291ZM345.099 206.712H342.915V213.48H344.643C345.731 213.48 346.635 213.368 347.355 213.144C348.075 212.904 348.611 212.528 348.963 212.016C349.315 211.504 349.491 210.832 349.491 210C349.491 208.896 349.139 208.072 348.435 207.528C347.731 206.984 346.619 206.712 345.099 206.712ZM358.886 222V204.864H361.046V220.08H368.534V222H358.886ZM378.809 213.288L383.273 204.864H385.601L379.889 215.352V222H377.729V215.448L372.017 204.864H374.369L378.809 213.288ZM408.717 206.52C407.805 206.52 406.981 206.68 406.245 207C405.509 207.304 404.885 207.76 404.373 208.368C403.861 208.96 403.469 209.688 403.197 210.552C402.925 211.4 402.789 212.36 402.789 213.432C402.789 214.84 403.005 216.064 403.437 217.104C403.885 218.144 404.541 218.944 405.405 219.504C406.285 220.064 407.381 220.344 408.693 220.344C409.445 220.344 410.157 220.28 410.829 220.152C411.501 220.024 412.157 219.864 412.797 219.672V221.544C412.157 221.784 411.493 221.96 410.805 222.072C410.133 222.184 409.325 222.24 408.381 222.24C406.637 222.24 405.181 221.88 404.013 221.16C402.845 220.44 401.965 219.416 401.373 218.088C400.797 216.76 400.509 215.2 400.509 213.408C400.509 212.112 400.685 210.928 401.037 209.856C401.405 208.784 401.933 207.856 402.621 207.072C403.325 206.288 404.189 205.688 405.213 205.272C406.237 204.84 407.413 204.624 408.741 204.624C409.621 204.624 410.469 204.712 411.285 204.888C412.101 205.064 412.829 205.312 413.469 205.632L412.605 207.456C412.077 207.216 411.485 207 410.829 206.808C410.189 206.616 409.485 206.52 408.717 206.52ZM433.241 222H431.081V214.008H422.297V222H420.137V204.864H422.297V212.112H431.081V204.864H433.241V222ZM452.278 222L450.214 216.696H443.422L441.382 222H439.198L445.894 204.792H447.838L454.51 222H452.278ZM447.646 209.592C447.598 209.464 447.518 209.232 447.406 208.896C447.294 208.56 447.182 208.216 447.07 207.864C446.974 207.496 446.894 207.216 446.83 207.024C446.75 207.344 446.662 207.672 446.566 208.008C446.486 208.328 446.398 208.624 446.302 208.896C446.222 209.168 446.15 209.4 446.086 209.592L444.142 214.776H449.566L447.646 209.592ZM465.279 222H459.087V220.752L461.103 220.296V206.592L459.087 206.112V204.864H465.279V206.112L463.263 206.592V220.296L465.279 220.752V222ZM485.771 222H483.251L474.083 207.768H473.987C474.003 208.056 474.019 208.376 474.035 208.728C474.067 209.08 474.091 209.464 474.107 209.88C474.123 210.28 474.139 210.696 474.155 211.128C474.171 211.56 474.179 211.992 474.179 212.424V222H472.187V204.864H474.683L483.827 219.048H483.923C483.907 218.856 483.891 218.592 483.875 218.256C483.859 217.904 483.843 217.52 483.827 217.104C483.811 216.672 483.795 216.232 483.779 215.784C483.763 215.336 483.755 214.92 483.755 214.536V204.864H485.771V222ZM178.585 265L172.945 249.976H172.849C172.881 250.296 172.905 250.704 172.921 251.2C172.953 251.696 172.977 252.24 172.993 252.832C173.009 253.408 173.017 254 173.017 254.608V265H171.025V247.864H174.217L179.497 261.904H179.593L184.969 247.864H188.137V265H186.001V254.464C186.001 253.904 186.009 253.352 186.025 252.808C186.041 252.248 186.065 251.728 186.097 251.248C186.129 250.752 186.153 250.336 186.169 250H186.073L180.361 265H178.585ZM207.15 265L205.086 259.696H198.294L196.254 265H194.07L200.766 247.792H202.71L209.382 265H207.15ZM202.518 252.592C202.47 252.464 202.39 252.232 202.278 251.896C202.166 251.56 202.054 251.216 201.942 250.864C201.846 250.496 201.766 250.216 201.702 250.024C201.622 250.344 201.534 250.672 201.438 251.008C201.358 251.328 201.27 251.624 201.174 251.896C201.094 252.168 201.022 252.4 200.958 252.592L199.014 257.776H204.438L202.518 252.592ZM228.91 265H226.39L217.222 250.768H217.126C217.142 251.056 217.158 251.376 217.174 251.728C217.206 252.08 217.23 252.464 217.246 252.88C217.262 253.28 217.278 253.696 217.294 254.128C217.31 254.56 217.318 254.992 217.318 255.424V265H215.326V247.864H217.822L226.966 262.048H227.062C227.046 261.856 227.03 261.592 227.014 261.256C226.998 260.904 226.982 260.52 226.966 260.104C226.95 259.672 226.934 259.232 226.918 258.784C226.902 258.336 226.894 257.92 226.894 257.536V247.864H228.91V265ZM247.913 265L245.849 259.696H239.057L237.017 265H234.833L241.529 247.792H243.473L250.145 265H247.913ZM243.281 252.592C243.233 252.464 243.153 252.232 243.041 251.896C242.929 251.56 242.817 251.216 242.705 250.864C242.609 250.496 242.529 250.216 242.465 250.024C242.385 250.344 242.297 250.672 242.201 251.008C242.121 251.328 242.033 251.624 241.937 251.896C241.857 252.168 241.785 252.4 241.721 252.592L239.777 257.776H245.201L243.281 252.592ZM263.06 255.952H268.988V264.352C268.06 264.656 267.124 264.88 266.18 265.024C265.236 265.168 264.164 265.24 262.964 265.24C261.188 265.24 259.692 264.888 258.476 264.184C257.26 263.464 256.332 262.448 255.692 261.136C255.068 259.808 254.756 258.24 254.756 256.432C254.756 254.64 255.108 253.088 255.812 251.776C256.516 250.464 257.524 249.448 258.836 248.728C260.164 247.992 261.764 247.624 263.636 247.624C264.596 247.624 265.5 247.712 266.348 247.888C267.212 248.064 268.012 248.312 268.748 248.632L267.932 250.504C267.324 250.232 266.636 250 265.868 249.808C265.116 249.616 264.332 249.52 263.516 249.52C262.156 249.52 260.988 249.8 260.012 250.36C259.036 250.92 258.292 251.72 257.78 252.76C257.268 253.784 257.012 255.008 257.012 256.432C257.012 257.792 257.228 259 257.66 260.056C258.108 261.096 258.804 261.912 259.748 262.504C260.692 263.08 261.932 263.368 263.468 263.368C263.98 263.368 264.428 263.352 264.812 263.32C265.212 263.272 265.572 263.216 265.892 263.152C266.228 263.088 266.54 263.024 266.828 262.96V257.872H263.06V255.952ZM286.257 265H276.681V247.864H286.257V249.76H278.841V255.112H285.825V256.984H278.841V263.104H286.257V265ZM301.177 265L295.537 249.976H295.441C295.473 250.296 295.497 250.704 295.513 251.2C295.545 251.696 295.569 252.24 295.585 252.832C295.601 253.408 295.609 254 295.609 254.608V265H293.617V247.864H296.809L302.089 261.904H302.185L307.561 247.864H310.729V265H308.593V254.464C308.593 253.904 308.601 253.352 308.617 252.808C308.633 252.248 308.657 251.728 308.689 251.248C308.721 250.752 308.745 250.336 308.761 250H308.665L302.953 265H301.177ZM328.566 265H318.99V247.864H328.566V249.76H321.15V255.112H328.134V256.984H321.15V263.104H328.566V265ZM349.51 265H346.99L337.822 250.768H337.726C337.742 251.056 337.758 251.376 337.774 251.728C337.806 252.08 337.83 252.464 337.846 252.88C337.862 253.28 337.878 253.696 337.894 254.128C337.91 254.56 337.918 254.992 337.918 255.424V265H335.926V247.864H338.422L347.566 262.048H347.662C347.646 261.856 347.63 261.592 347.614 261.256C347.598 260.904 347.582 260.52 347.566 260.104C347.55 259.672 347.534 259.232 347.518 258.784C347.502 258.336 347.494 257.92 347.494 257.536V247.864H349.51V265ZM363.185 265H361.025V249.76H355.673V247.864H368.513V249.76H363.185V265ZM394.251 260.416C394.251 261.44 394.003 262.312 393.507 263.032C393.011 263.736 392.299 264.28 391.371 264.664C390.459 265.048 389.379 265.24 388.131 265.24C387.491 265.24 386.875 265.208 386.283 265.144C385.707 265.08 385.179 264.992 384.699 264.88C384.219 264.752 383.795 264.6 383.427 264.424V262.36C384.003 262.616 384.715 262.848 385.563 263.056C386.427 263.264 387.315 263.368 388.227 263.368C389.075 263.368 389.787 263.256 390.363 263.032C390.939 262.808 391.371 262.488 391.659 262.072C391.947 261.656 392.091 261.168 392.091 260.608C392.091 260.048 391.971 259.576 391.731 259.192C391.491 258.808 391.075 258.456 390.483 258.136C389.907 257.8 389.099 257.448 388.059 257.08C387.323 256.808 386.675 256.52 386.115 256.216C385.571 255.896 385.115 255.536 384.747 255.136C384.379 254.736 384.099 254.28 383.907 253.768C383.731 253.256 383.643 252.664 383.643 251.992C383.643 251.08 383.875 250.304 384.339 249.664C384.803 249.008 385.443 248.504 386.259 248.152C387.091 247.8 388.043 247.624 389.115 247.624C390.059 247.624 390.923 247.712 391.707 247.888C392.491 248.064 393.203 248.296 393.843 248.584L393.171 250.432C392.579 250.176 391.931 249.96 391.227 249.784C390.539 249.608 389.819 249.52 389.067 249.52C388.347 249.52 387.747 249.624 387.267 249.832C386.787 250.04 386.427 250.336 386.187 250.72C385.947 251.088 385.827 251.52 385.827 252.016C385.827 252.592 385.947 253.072 386.187 253.456C386.427 253.84 386.819 254.184 387.363 254.488C387.907 254.792 388.643 255.12 389.571 255.472C390.579 255.84 391.427 256.24 392.115 256.672C392.819 257.088 393.347 257.592 393.699 258.184C394.067 258.776 394.251 259.52 394.251 260.416ZM406.727 265H404.567V249.76H399.215V247.864H412.055V249.76H406.727V265ZM431.271 258.952C431.271 260.136 431.031 261.208 430.551 262.168C430.071 263.112 429.335 263.864 428.343 264.424C427.367 264.968 426.119 265.24 424.599 265.24C422.471 265.24 420.847 264.664 419.727 263.512C418.623 262.344 418.071 260.808 418.071 258.904V247.864H420.231V258.976C420.231 260.368 420.599 261.448 421.335 262.216C422.087 262.984 423.215 263.368 424.719 263.368C425.759 263.368 426.599 263.184 427.239 262.816C427.895 262.432 428.375 261.912 428.679 261.256C428.983 260.584 429.135 259.816 429.135 258.952V247.864H431.271V258.952ZM453.122 256.264C453.122 258.184 452.762 259.792 452.042 261.088C451.338 262.384 450.322 263.36 448.994 264.016C447.666 264.672 446.058 265 444.17 265H439.394V247.864H444.674C446.402 247.864 447.898 248.184 449.162 248.824C450.426 249.464 451.402 250.408 452.09 251.656C452.778 252.888 453.122 254.424 453.122 256.264ZM450.842 256.336C450.842 254.816 450.586 253.568 450.074 252.592C449.578 251.616 448.842 250.896 447.866 250.432C446.906 249.952 445.738 249.712 444.362 249.712H441.554V263.152H443.882C446.202 263.152 447.938 262.584 449.09 261.448C450.258 260.296 450.842 258.592 450.842 256.336ZM470.101 265H460.525V247.864H470.101V249.76H462.685V255.112H469.669V256.984H462.685V263.104H470.101V265ZM491.045 265H488.525L479.357 250.768H479.261C479.277 251.056 479.293 251.376 479.309 251.728C479.341 252.08 479.365 252.464 479.381 252.88C479.397 253.28 479.413 253.696 479.429 254.128C479.445 254.56 479.453 254.992 479.453 255.424V265H477.461V247.864H479.957L489.101 262.048H489.197C489.181 261.856 489.165 261.592 489.149 261.256C489.133 260.904 489.117 260.52 489.101 260.104C489.085 259.672 489.069 259.232 489.053 258.784C489.037 258.336 489.029 257.92 489.029 257.536V247.864H491.045V265ZM504.719 265H502.559V249.76H497.207V247.864H510.047V249.76H504.719V265Z" fill="#BFBAB0"/>
</svg>
