<svg width="298" height="298" viewBox="0 0 298 298" fill="none" xmlns="http://www.w3.org/2000/svg">
<circle cx="149" cy="149" r="149" fill="#314033"/>
<path d="M139.848 123.62C139.848 125.151 139.192 125.916 137.88 125.916C137.443 125.916 137.06 125.916 136.732 125.916C136.404 125.807 136.131 125.533 135.912 125.096C135.803 124.877 135.639 124.385 135.42 123.62C135.311 122.745 135.256 122.144 135.256 121.816C134.709 118.536 133.889 114.928 132.796 110.992C131.812 106.947 130.227 103.667 128.04 101.152C126.947 99.84 125.088 98.9653 122.464 98.528C119.84 98.0907 117.161 97.872 114.428 97.872C111.695 97.872 109.563 97.872 108.032 97.872C106.392 97.872 104.369 97.872 101.964 97.872C99.668 97.872 97.5907 98.3093 95.732 99.184C93.9827 100.059 93.108 101.808 93.108 104.432C93.108 120.941 93.1627 137.505 93.272 154.124C93.4907 170.633 93.6 187.197 93.6 203.816C93.6 205.237 94.2013 206.331 95.404 207.096C96.6067 207.752 97.9733 208.189 99.504 208.408C101.035 208.627 102.292 208.736 103.276 208.736C104.151 208.736 104.916 208.736 105.572 208.736C106.337 208.627 107.103 208.572 107.868 208.572C108.961 208.572 109.508 209.064 109.508 210.048C109.508 210.485 109.508 211.141 109.508 212.016C109.508 212.781 109.125 213.164 108.36 213.164C104.424 213.164 100.488 213.109 96.552 213C92.7253 212.781 88.844 212.672 84.908 212.672C79.66 212.672 74.3027 212.836 68.836 213.164C67.6333 213.164 66.376 213.219 65.064 213.328C63.752 213.437 62.4947 213.492 61.292 213.492C60.308 213.492 59.816 212.891 59.816 211.688C59.816 210.376 59.98 209.556 60.308 209.228C60.636 208.9 61.4013 208.736 62.604 208.736C62.8227 208.736 63.0413 208.791 63.26 208.9C63.588 208.9 63.8067 208.9 63.916 208.9C65.1187 208.9 66.6493 208.791 68.508 208.572C70.3667 208.353 72.0067 207.916 73.428 207.26C74.9587 206.495 75.724 205.347 75.724 203.816C75.8333 195.397 75.888 186.979 75.888 178.56C75.9973 170.141 76.052 161.723 76.052 153.304C76.052 144.995 75.9973 136.74 75.888 128.54C75.7787 120.231 75.724 111.921 75.724 103.612C75.724 102.3 75.1773 101.097 74.084 100.004C73.1 98.9107 72.0067 98.3093 70.804 98.2C69.82 97.9813 68.7813 97.872 67.688 97.872C66.704 97.872 65.6653 97.872 64.572 97.872H49.976C46.04 97.872 43.088 98.856 41.12 100.824C39.2613 102.683 37.9493 105.143 37.184 108.204C36.4187 111.156 35.708 114.217 35.052 117.388C35.052 117.607 34.888 118.372 34.56 119.684C34.3413 120.887 34.068 122.089 33.74 123.292C33.5213 124.385 33.3573 124.987 33.248 125.096C32.8107 125.643 32.1547 125.916 31.28 125.916C30.0773 125.916 29.476 125.315 29.476 124.112C29.476 123.675 29.476 123.128 29.476 122.472C29.5853 121.707 29.6947 120.832 29.804 119.848C30.0227 117.333 30.1867 114.327 30.296 110.828C30.5147 107.22 30.6787 103.885 30.788 100.824C30.8973 99.7307 30.952 98.6373 30.952 97.544C30.952 96.4507 31.0067 95.4667 31.116 94.592C31.116 93.0613 32.0453 92.4053 33.904 92.624C41.8853 93.3893 49.9213 93.772 58.012 93.772C66.212 93.6627 74.3027 93.608 82.284 93.608H96.224C100.707 93.608 105.189 93.608 109.672 93.608C114.264 93.4987 118.856 93.3893 123.448 93.28C125.416 93.1707 127.439 93.116 129.516 93.116C131.703 93.0067 133.835 92.952 135.912 92.952C137.333 92.952 138.153 93.4987 138.372 94.592C138.481 94.92 138.591 96.1227 138.7 98.2C138.809 100.168 138.919 102.464 139.028 105.088C139.137 107.603 139.192 110.008 139.192 112.304C139.301 114.491 139.356 116.021 139.356 116.896C139.465 117.989 139.575 119.083 139.684 120.176C139.793 121.269 139.848 122.417 139.848 123.62ZM253.078 123.62C253.078 125.151 252.422 125.916 251.11 125.916C250.673 125.916 250.29 125.916 249.962 125.916C249.634 125.807 249.361 125.533 249.142 125.096C249.033 124.877 248.869 124.385 248.65 123.62C248.541 122.745 248.486 122.144 248.486 121.816C247.94 118.536 247.12 114.928 246.026 110.992C245.042 106.947 243.457 103.667 241.27 101.152C240.177 99.84 238.318 98.9653 235.694 98.528C233.07 98.0907 230.392 97.872 227.658 97.872C224.925 97.872 222.793 97.872 221.262 97.872C219.622 97.872 217.6 97.872 215.194 97.872C212.898 97.872 210.821 98.3093 208.962 99.184C207.213 100.059 206.338 101.808 206.338 104.432C206.338 120.941 206.393 137.505 206.502 154.124C206.721 170.633 206.83 187.197 206.83 203.816C206.83 205.237 207.432 206.331 208.634 207.096C209.837 207.752 211.204 208.189 212.734 208.408C214.265 208.627 215.522 208.736 216.506 208.736C217.381 208.736 218.146 208.736 218.802 208.736C219.568 208.627 220.333 208.572 221.098 208.572C222.192 208.572 222.738 209.064 222.738 210.048C222.738 210.485 222.738 211.141 222.738 212.016C222.738 212.781 222.356 213.164 221.59 213.164C217.654 213.164 213.718 213.109 209.782 213C205.956 212.781 202.074 212.672 198.138 212.672C192.89 212.672 187.533 212.836 182.066 213.164C180.864 213.164 179.606 213.219 178.294 213.328C176.982 213.437 175.725 213.492 174.522 213.492C173.538 213.492 173.046 212.891 173.046 211.688C173.046 210.376 173.21 209.556 173.538 209.228C173.866 208.9 174.632 208.736 175.834 208.736C176.053 208.736 176.272 208.791 176.49 208.9C176.818 208.9 177.037 208.9 177.146 208.9C178.349 208.9 179.88 208.791 181.738 208.572C183.597 208.353 185.237 207.916 186.658 207.26C188.189 206.495 188.954 205.347 188.954 203.816C189.064 195.397 189.118 186.979 189.118 178.56C189.228 170.141 189.282 161.723 189.282 153.304C189.282 144.995 189.228 136.74 189.118 128.54C189.009 120.231 188.954 111.921 188.954 103.612C188.954 102.3 188.408 101.097 187.314 100.004C186.33 98.9107 185.237 98.3093 184.034 98.2C183.05 97.9813 182.012 97.872 180.918 97.872C179.934 97.872 178.896 97.872 177.802 97.872H163.206C159.27 97.872 156.318 98.856 154.35 100.824C152.492 102.683 151.18 105.143 150.414 108.204C149.649 111.156 148.938 114.217 148.282 117.388C148.282 117.607 148.118 118.372 147.79 119.684C147.572 120.887 147.298 122.089 146.97 123.292C146.752 124.385 146.588 124.987 146.478 125.096C146.041 125.643 145.385 125.916 144.51 125.916C143.308 125.916 142.706 125.315 142.706 124.112C142.706 123.675 142.706 123.128 142.706 122.472C142.816 121.707 142.925 120.832 143.034 119.848C143.253 117.333 143.417 114.327 143.526 110.828C143.745 107.22 143.909 103.885 144.018 100.824C144.128 99.7307 144.182 98.6373 144.182 97.544C144.182 96.4507 144.237 95.4667 144.346 94.592C144.346 93.0613 145.276 92.4053 147.134 92.624C155.116 93.3893 163.152 93.772 171.242 93.772C179.442 93.6627 187.533 93.608 195.514 93.608H209.454C213.937 93.608 218.42 93.608 222.902 93.608C227.494 93.4987 232.086 93.3893 236.678 93.28C238.646 93.1707 240.669 93.116 242.746 93.116C244.933 93.0067 247.065 92.952 249.142 92.952C250.564 92.952 251.384 93.4987 251.602 94.592C251.712 94.92 251.821 96.1227 251.93 98.2C252.04 100.168 252.149 102.464 252.258 105.088C252.368 107.603 252.422 110.008 252.422 112.304C252.532 114.491 252.586 116.021 252.586 116.896C252.696 117.989 252.805 119.083 252.914 120.176C253.024 121.269 253.078 122.417 253.078 123.62Z" fill="#BFBAB0"/>
</svg>
